<mxfile host="app.diagrams.net" modified="2024-05-24T09:30:57.983Z" agent="Mozilla/5.0 (Windows NT 10.0; Win64; x64) AppleWebKit/537.36 (KHTML, like Gecko) Chrome/125.0.0.0 Safari/537.36" etag="dEkpHLqMB3DtdvyehdPr" version="24.4.7" type="device">
  <diagram id="C5RBs43oDa-KdzZeNtuy" name="Page-1">
    <mxGraphModel dx="1050" dy="522" grid="1" gridSize="10" guides="1" tooltips="1" connect="1" arrows="1" fold="1" page="1" pageScale="1" pageWidth="827" pageHeight="1169" math="0" shadow="0">
      <root>
        <mxCell id="WIyWlLk6GJQsqaUBKTNV-0" />
        <mxCell id="WIyWlLk6GJQsqaUBKTNV-1" parent="WIyWlLk6GJQsqaUBKTNV-0" />
        <mxCell id="OU5wKeCDdtmzuiw6OE-O-5" style="edgeStyle=orthogonalEdgeStyle;rounded=0;orthogonalLoop=1;jettySize=auto;html=1;fillColor=#f8cecc;strokeColor=#b85450;entryX=0.5;entryY=1;entryDx=0;entryDy=0;" parent="WIyWlLk6GJQsqaUBKTNV-1" edge="1">
          <mxGeometry relative="1" as="geometry">
            <mxPoint x="401" y="450" as="targetPoint" />
            <mxPoint x="387" y="580" as="sourcePoint" />
          </mxGeometry>
        </mxCell>
        <mxCell id="OU5wKeCDdtmzuiw6OE-O-6" value="Player detected in detection range/ vision area" style="edgeLabel;html=1;align=center;verticalAlign=middle;resizable=0;points=[];" parent="OU5wKeCDdtmzuiw6OE-O-5" vertex="1" connectable="0">
          <mxGeometry x="-0.4308" y="-2" relative="1" as="geometry">
            <mxPoint as="offset" />
          </mxGeometry>
        </mxCell>
        <mxCell id="OU5wKeCDdtmzuiw6OE-O-3" value="IDLE WAIT / PATROL" style="shape=process;whiteSpace=wrap;html=1;backgroundOutline=1;fillColor=#e1d5e7;strokeColor=#9673a6;" parent="WIyWlLk6GJQsqaUBKTNV-1" vertex="1">
          <mxGeometry x="347" y="580" width="120" height="60" as="geometry" />
        </mxCell>
        <mxCell id="OU5wKeCDdtmzuiw6OE-O-8" style="edgeStyle=orthogonalEdgeStyle;rounded=0;orthogonalLoop=1;jettySize=auto;html=1;exitX=0.75;exitY=1;exitDx=0;exitDy=0;entryX=0.75;entryY=0;entryDx=0;entryDy=0;fillColor=#e1d5e7;strokeColor=#9673a6;" parent="WIyWlLk6GJQsqaUBKTNV-1" edge="1">
          <mxGeometry relative="1" as="geometry">
            <mxPoint x="461" y="450" as="sourcePoint" />
            <mxPoint x="447" y="580" as="targetPoint" />
          </mxGeometry>
        </mxCell>
        <mxCell id="OU5wKeCDdtmzuiw6OE-O-9" value="lost the player" style="edgeLabel;html=1;align=center;verticalAlign=middle;resizable=0;points=[];" parent="OU5wKeCDdtmzuiw6OE-O-8" vertex="1" connectable="0">
          <mxGeometry x="-0.3889" y="2" relative="1" as="geometry">
            <mxPoint as="offset" />
          </mxGeometry>
        </mxCell>
        <mxCell id="evp0P0b4LLbFigErLQdF-0" style="edgeStyle=orthogonalEdgeStyle;rounded=0;orthogonalLoop=1;jettySize=auto;html=1;exitX=0;exitY=0.5;exitDx=0;exitDy=0;entryX=0.5;entryY=1;entryDx=0;entryDy=0;" edge="1" parent="WIyWlLk6GJQsqaUBKTNV-1" source="OU5wKeCDdtmzuiw6OE-O-7" target="evp0P0b4LLbFigErLQdF-2">
          <mxGeometry relative="1" as="geometry">
            <mxPoint x="170" y="300" as="targetPoint" />
            <Array as="points">
              <mxPoint x="250" y="420" />
              <mxPoint x="250" y="300" />
            </Array>
          </mxGeometry>
        </mxCell>
        <mxCell id="evp0P0b4LLbFigErLQdF-1" value="Player attacks" style="edgeLabel;html=1;align=center;verticalAlign=middle;resizable=0;points=[];" vertex="1" connectable="0" parent="evp0P0b4LLbFigErLQdF-0">
          <mxGeometry x="-0.5105" y="3" relative="1" as="geometry">
            <mxPoint as="offset" />
          </mxGeometry>
        </mxCell>
        <mxCell id="evp0P0b4LLbFigErLQdF-11" style="edgeStyle=orthogonalEdgeStyle;rounded=0;orthogonalLoop=1;jettySize=auto;html=1;exitX=1;exitY=0.5;exitDx=0;exitDy=0;entryX=0;entryY=0.5;entryDx=0;entryDy=0;entryPerimeter=0;" edge="1" parent="WIyWlLk6GJQsqaUBKTNV-1" source="OU5wKeCDdtmzuiw6OE-O-7" target="evp0P0b4LLbFigErLQdF-13">
          <mxGeometry relative="1" as="geometry">
            <mxPoint x="640" y="420" as="targetPoint" />
          </mxGeometry>
        </mxCell>
        <mxCell id="evp0P0b4LLbFigErLQdF-12" value="Try to attack player" style="edgeLabel;html=1;align=center;verticalAlign=middle;resizable=0;points=[];" vertex="1" connectable="0" parent="evp0P0b4LLbFigErLQdF-11">
          <mxGeometry x="-0.1724" y="-4" relative="1" as="geometry">
            <mxPoint as="offset" />
          </mxGeometry>
        </mxCell>
        <mxCell id="OU5wKeCDdtmzuiw6OE-O-7" value="COMBAT" style="shape=process;whiteSpace=wrap;html=1;backgroundOutline=1;fillColor=#f8cecc;strokeColor=#b85450;" parent="WIyWlLk6GJQsqaUBKTNV-1" vertex="1">
          <mxGeometry x="361" y="390" width="120" height="60" as="geometry" />
        </mxCell>
        <mxCell id="evp0P0b4LLbFigErLQdF-5" style="edgeStyle=orthogonalEdgeStyle;rounded=0;orthogonalLoop=1;jettySize=auto;html=1;exitX=0;exitY=0;exitDx=0;exitDy=0;entryX=0.5;entryY=1;entryDx=0;entryDy=0;" edge="1" parent="WIyWlLk6GJQsqaUBKTNV-1" source="evp0P0b4LLbFigErLQdF-2" target="evp0P0b4LLbFigErLQdF-3">
          <mxGeometry relative="1" as="geometry" />
        </mxCell>
        <mxCell id="evp0P0b4LLbFigErLQdF-6" style="edgeStyle=orthogonalEdgeStyle;rounded=0;orthogonalLoop=1;jettySize=auto;html=1;exitX=1;exitY=0;exitDx=0;exitDy=0;entryX=0.5;entryY=1;entryDx=0;entryDy=0;" edge="1" parent="WIyWlLk6GJQsqaUBKTNV-1" source="evp0P0b4LLbFigErLQdF-2" target="evp0P0b4LLbFigErLQdF-4">
          <mxGeometry relative="1" as="geometry">
            <mxPoint x="380" y="130" as="targetPoint" />
          </mxGeometry>
        </mxCell>
        <mxCell id="evp0P0b4LLbFigErLQdF-2" value="try to avoid taking damage" style="rhombus;whiteSpace=wrap;html=1;" vertex="1" parent="WIyWlLk6GJQsqaUBKTNV-1">
          <mxGeometry x="190" y="180" width="130" height="120" as="geometry" />
        </mxCell>
        <mxCell id="evp0P0b4LLbFigErLQdF-3" value="dodge roll" style="rounded=0;whiteSpace=wrap;html=1;" vertex="1" parent="WIyWlLk6GJQsqaUBKTNV-1">
          <mxGeometry x="60" y="60" width="120" height="60" as="geometry" />
        </mxCell>
        <mxCell id="evp0P0b4LLbFigErLQdF-7" style="edgeStyle=orthogonalEdgeStyle;rounded=0;orthogonalLoop=1;jettySize=auto;html=1;exitX=1;exitY=0;exitDx=0;exitDy=0;" edge="1" parent="WIyWlLk6GJQsqaUBKTNV-1" source="evp0P0b4LLbFigErLQdF-4" target="evp0P0b4LLbFigErLQdF-20">
          <mxGeometry relative="1" as="geometry">
            <mxPoint x="640" y="30" as="targetPoint" />
          </mxGeometry>
        </mxCell>
        <mxCell id="evp0P0b4LLbFigErLQdF-8" style="edgeStyle=orthogonalEdgeStyle;rounded=0;orthogonalLoop=1;jettySize=auto;html=1;exitX=1;exitY=0.5;exitDx=0;exitDy=0;entryX=0;entryY=0.5;entryDx=0;entryDy=0;entryPerimeter=0;" edge="1" parent="WIyWlLk6GJQsqaUBKTNV-1" source="evp0P0b4LLbFigErLQdF-4" target="evp0P0b4LLbFigErLQdF-19">
          <mxGeometry relative="1" as="geometry">
            <mxPoint x="640" y="120" as="targetPoint" />
          </mxGeometry>
        </mxCell>
        <mxCell id="evp0P0b4LLbFigErLQdF-9" style="edgeStyle=orthogonalEdgeStyle;rounded=0;orthogonalLoop=1;jettySize=auto;html=1;exitX=1;exitY=1;exitDx=0;exitDy=0;" edge="1" parent="WIyWlLk6GJQsqaUBKTNV-1" source="evp0P0b4LLbFigErLQdF-4" target="evp0P0b4LLbFigErLQdF-10">
          <mxGeometry relative="1" as="geometry">
            <mxPoint x="500" y="200" as="targetPoint" />
          </mxGeometry>
        </mxCell>
        <mxCell id="evp0P0b4LLbFigErLQdF-4" value="block / parry" style="rounded=0;whiteSpace=wrap;html=1;" vertex="1" parent="WIyWlLk6GJQsqaUBKTNV-1">
          <mxGeometry x="330" y="60" width="120" height="60" as="geometry" />
        </mxCell>
        <mxCell id="evp0P0b4LLbFigErLQdF-10" value="block with a sword" style="rounded=0;whiteSpace=wrap;html=1;" vertex="1" parent="WIyWlLk6GJQsqaUBKTNV-1">
          <mxGeometry x="450" y="200" width="120" height="60" as="geometry" />
        </mxCell>
        <mxCell id="evp0P0b4LLbFigErLQdF-14" style="edgeStyle=orthogonalEdgeStyle;rounded=0;orthogonalLoop=1;jettySize=auto;html=1;exitX=0.5;exitY=0;exitDx=0;exitDy=0;entryX=0.5;entryY=1;entryDx=0;entryDy=0;" edge="1" parent="WIyWlLk6GJQsqaUBKTNV-1" source="evp0P0b4LLbFigErLQdF-13" target="evp0P0b4LLbFigErLQdF-10">
          <mxGeometry relative="1" as="geometry" />
        </mxCell>
        <mxCell id="evp0P0b4LLbFigErLQdF-15" style="edgeStyle=orthogonalEdgeStyle;rounded=0;orthogonalLoop=1;jettySize=auto;html=1;exitX=0.5;exitY=1;exitDx=0;exitDy=0;" edge="1" parent="WIyWlLk6GJQsqaUBKTNV-1" source="evp0P0b4LLbFigErLQdF-13" target="evp0P0b4LLbFigErLQdF-16">
          <mxGeometry relative="1" as="geometry">
            <mxPoint x="620" y="560" as="targetPoint" />
          </mxGeometry>
        </mxCell>
        <mxCell id="evp0P0b4LLbFigErLQdF-17" style="edgeStyle=orthogonalEdgeStyle;rounded=0;orthogonalLoop=1;jettySize=auto;html=1;exitX=0.75;exitY=1;exitDx=0;exitDy=0;" edge="1" parent="WIyWlLk6GJQsqaUBKTNV-1" source="evp0P0b4LLbFigErLQdF-13" target="evp0P0b4LLbFigErLQdF-18">
          <mxGeometry relative="1" as="geometry">
            <mxPoint x="760" y="670" as="targetPoint" />
          </mxGeometry>
        </mxCell>
        <mxCell id="evp0P0b4LLbFigErLQdF-13" value="use weapon" style="rounded=0;whiteSpace=wrap;html=1;" vertex="1" parent="WIyWlLk6GJQsqaUBKTNV-1">
          <mxGeometry x="640" y="390" width="120" height="60" as="geometry" />
        </mxCell>
        <mxCell id="evp0P0b4LLbFigErLQdF-40" style="edgeStyle=orthogonalEdgeStyle;rounded=0;orthogonalLoop=1;jettySize=auto;html=1;exitX=0.5;exitY=1;exitDx=0;exitDy=0;" edge="1" parent="WIyWlLk6GJQsqaUBKTNV-1" source="evp0P0b4LLbFigErLQdF-16" target="evp0P0b4LLbFigErLQdF-41">
          <mxGeometry relative="1" as="geometry">
            <mxPoint x="560" y="720" as="targetPoint" />
          </mxGeometry>
        </mxCell>
        <mxCell id="evp0P0b4LLbFigErLQdF-16" value="player blocks" style="rounded=0;whiteSpace=wrap;html=1;" vertex="1" parent="WIyWlLk6GJQsqaUBKTNV-1">
          <mxGeometry x="580" y="530" width="120" height="60" as="geometry" />
        </mxCell>
        <mxCell id="evp0P0b4LLbFigErLQdF-42" style="edgeStyle=orthogonalEdgeStyle;rounded=0;orthogonalLoop=1;jettySize=auto;html=1;exitX=0.5;exitY=1;exitDx=0;exitDy=0;" edge="1" parent="WIyWlLk6GJQsqaUBKTNV-1" source="evp0P0b4LLbFigErLQdF-18" target="evp0P0b4LLbFigErLQdF-43">
          <mxGeometry relative="1" as="geometry">
            <mxPoint x="720" y="830" as="targetPoint" />
          </mxGeometry>
        </mxCell>
        <mxCell id="evp0P0b4LLbFigErLQdF-44" style="edgeStyle=orthogonalEdgeStyle;rounded=0;orthogonalLoop=1;jettySize=auto;html=1;exitX=0.25;exitY=1;exitDx=0;exitDy=0;" edge="1" parent="WIyWlLk6GJQsqaUBKTNV-1" source="evp0P0b4LLbFigErLQdF-18" target="evp0P0b4LLbFigErLQdF-45">
          <mxGeometry relative="1" as="geometry">
            <mxPoint x="620" y="850" as="targetPoint" />
          </mxGeometry>
        </mxCell>
        <mxCell id="evp0P0b4LLbFigErLQdF-18" value="player dodge rolls" style="rounded=0;whiteSpace=wrap;html=1;" vertex="1" parent="WIyWlLk6GJQsqaUBKTNV-1">
          <mxGeometry x="700" y="640" width="120" height="60" as="geometry" />
        </mxCell>
        <mxCell id="evp0P0b4LLbFigErLQdF-36" style="edgeStyle=orthogonalEdgeStyle;rounded=0;orthogonalLoop=1;jettySize=auto;html=1;exitX=0.5;exitY=1;exitDx=0;exitDy=0;" edge="1" parent="WIyWlLk6GJQsqaUBKTNV-1" source="evp0P0b4LLbFigErLQdF-19" target="evp0P0b4LLbFigErLQdF-37">
          <mxGeometry relative="1" as="geometry">
            <mxPoint x="720" y="200" as="targetPoint" />
          </mxGeometry>
        </mxCell>
        <mxCell id="evp0P0b4LLbFigErLQdF-19" value="blocked with a shield" style="rounded=0;whiteSpace=wrap;html=1;" vertex="1" parent="WIyWlLk6GJQsqaUBKTNV-1">
          <mxGeometry x="600" y="90" width="120" height="60" as="geometry" />
        </mxCell>
        <mxCell id="evp0P0b4LLbFigErLQdF-38" style="edgeStyle=orthogonalEdgeStyle;rounded=0;orthogonalLoop=1;jettySize=auto;html=1;exitX=1;exitY=0.5;exitDx=0;exitDy=0;" edge="1" parent="WIyWlLk6GJQsqaUBKTNV-1" source="evp0P0b4LLbFigErLQdF-20" target="evp0P0b4LLbFigErLQdF-39">
          <mxGeometry relative="1" as="geometry">
            <mxPoint x="790" y="110" as="targetPoint" />
          </mxGeometry>
        </mxCell>
        <mxCell id="evp0P0b4LLbFigErLQdF-20" value="parried" style="rounded=0;whiteSpace=wrap;html=1;" vertex="1" parent="WIyWlLk6GJQsqaUBKTNV-1">
          <mxGeometry x="640" y="10" width="120" height="60" as="geometry" />
        </mxCell>
        <mxCell id="evp0P0b4LLbFigErLQdF-23" style="edgeStyle=orthogonalEdgeStyle;rounded=0;orthogonalLoop=1;jettySize=auto;html=1;exitX=0.5;exitY=1;exitDx=0;exitDy=0;" edge="1" parent="WIyWlLk6GJQsqaUBKTNV-1" source="evp0P0b4LLbFigErLQdF-22" target="evp0P0b4LLbFigErLQdF-24">
          <mxGeometry relative="1" as="geometry">
            <mxPoint x="110" y="710" as="targetPoint" />
          </mxGeometry>
        </mxCell>
        <mxCell id="evp0P0b4LLbFigErLQdF-22" value="player is staggered" style="rounded=1;whiteSpace=wrap;html=1;" vertex="1" parent="WIyWlLk6GJQsqaUBKTNV-1">
          <mxGeometry x="50" y="560" width="120" height="60" as="geometry" />
        </mxCell>
        <mxCell id="evp0P0b4LLbFigErLQdF-24" value="walk up and critical strike" style="rounded=0;whiteSpace=wrap;html=1;" vertex="1" parent="WIyWlLk6GJQsqaUBKTNV-1">
          <mxGeometry x="50" y="680" width="120" height="60" as="geometry" />
        </mxCell>
        <mxCell id="evp0P0b4LLbFigErLQdF-26" style="edgeStyle=orthogonalEdgeStyle;rounded=0;orthogonalLoop=1;jettySize=auto;html=1;exitX=0.5;exitY=1;exitDx=0;exitDy=0;" edge="1" parent="WIyWlLk6GJQsqaUBKTNV-1" source="evp0P0b4LLbFigErLQdF-25" target="evp0P0b4LLbFigErLQdF-27">
          <mxGeometry relative="1" as="geometry">
            <mxPoint x="120" y="940" as="targetPoint" />
          </mxGeometry>
        </mxCell>
        <mxCell id="evp0P0b4LLbFigErLQdF-28" style="edgeStyle=orthogonalEdgeStyle;rounded=0;orthogonalLoop=1;jettySize=auto;html=1;exitX=1;exitY=0.5;exitDx=0;exitDy=0;" edge="1" parent="WIyWlLk6GJQsqaUBKTNV-1" source="evp0P0b4LLbFigErLQdF-25" target="evp0P0b4LLbFigErLQdF-29">
          <mxGeometry relative="1" as="geometry">
            <mxPoint x="240" y="830" as="targetPoint" />
          </mxGeometry>
        </mxCell>
        <mxCell id="evp0P0b4LLbFigErLQdF-25" value="low on hp" style="rounded=1;whiteSpace=wrap;html=1;" vertex="1" parent="WIyWlLk6GJQsqaUBKTNV-1">
          <mxGeometry x="60" y="800" width="120" height="60" as="geometry" />
        </mxCell>
        <mxCell id="evp0P0b4LLbFigErLQdF-27" value="be more defensive" style="rounded=0;whiteSpace=wrap;html=1;" vertex="1" parent="WIyWlLk6GJQsqaUBKTNV-1">
          <mxGeometry x="60" y="910" width="120" height="60" as="geometry" />
        </mxCell>
        <mxCell id="evp0P0b4LLbFigErLQdF-29" value="try to heal up" style="rounded=0;whiteSpace=wrap;html=1;" vertex="1" parent="WIyWlLk6GJQsqaUBKTNV-1">
          <mxGeometry x="227" y="800" width="120" height="60" as="geometry" />
        </mxCell>
        <mxCell id="evp0P0b4LLbFigErLQdF-31" style="edgeStyle=orthogonalEdgeStyle;rounded=0;orthogonalLoop=1;jettySize=auto;html=1;exitX=0.5;exitY=1;exitDx=0;exitDy=0;" edge="1" parent="WIyWlLk6GJQsqaUBKTNV-1" source="evp0P0b4LLbFigErLQdF-30" target="evp0P0b4LLbFigErLQdF-32">
          <mxGeometry relative="1" as="geometry">
            <mxPoint x="120" y="1100" as="targetPoint" />
          </mxGeometry>
        </mxCell>
        <mxCell id="evp0P0b4LLbFigErLQdF-33" style="edgeStyle=orthogonalEdgeStyle;rounded=0;orthogonalLoop=1;jettySize=auto;html=1;exitX=1;exitY=0.5;exitDx=0;exitDy=0;" edge="1" parent="WIyWlLk6GJQsqaUBKTNV-1" source="evp0P0b4LLbFigErLQdF-30" target="evp0P0b4LLbFigErLQdF-34">
          <mxGeometry relative="1" as="geometry">
            <mxPoint x="230" y="1030" as="targetPoint" />
          </mxGeometry>
        </mxCell>
        <mxCell id="evp0P0b4LLbFigErLQdF-30" value="low on stamina" style="rounded=1;whiteSpace=wrap;html=1;" vertex="1" parent="WIyWlLk6GJQsqaUBKTNV-1">
          <mxGeometry x="60" y="1000" width="120" height="60" as="geometry" />
        </mxCell>
        <mxCell id="evp0P0b4LLbFigErLQdF-32" value="be more aggresive" style="rounded=0;whiteSpace=wrap;html=1;" vertex="1" parent="WIyWlLk6GJQsqaUBKTNV-1">
          <mxGeometry x="60" y="1090" width="120" height="60" as="geometry" />
        </mxCell>
        <mxCell id="evp0P0b4LLbFigErLQdF-34" value="try to recover stamina" style="rounded=0;whiteSpace=wrap;html=1;" vertex="1" parent="WIyWlLk6GJQsqaUBKTNV-1">
          <mxGeometry x="227" y="1000" width="120" height="60" as="geometry" />
        </mxCell>
        <mxCell id="evp0P0b4LLbFigErLQdF-35" value="maybe some stats like aggresiveLevel, defensiveLevel, passiveLevel?" style="text;html=1;align=center;verticalAlign=middle;resizable=0;points=[];autosize=1;strokeColor=none;fillColor=none;" vertex="1" parent="WIyWlLk6GJQsqaUBKTNV-1">
          <mxGeometry x="190" y="1100" width="400" height="30" as="geometry" />
        </mxCell>
        <mxCell id="evp0P0b4LLbFigErLQdF-37" value="counter with a weapon instantly" style="rounded=0;whiteSpace=wrap;html=1;" vertex="1" parent="WIyWlLk6GJQsqaUBKTNV-1">
          <mxGeometry x="660" y="200" width="120" height="60" as="geometry" />
        </mxCell>
        <mxCell id="evp0P0b4LLbFigErLQdF-39" value="goto stagger" style="rounded=0;whiteSpace=wrap;html=1;" vertex="1" parent="WIyWlLk6GJQsqaUBKTNV-1">
          <mxGeometry x="760" y="80" width="50" height="60" as="geometry" />
        </mxCell>
        <mxCell id="evp0P0b4LLbFigErLQdF-41" value="dodge roll away form player" style="rounded=0;whiteSpace=wrap;html=1;" vertex="1" parent="WIyWlLk6GJQsqaUBKTNV-1">
          <mxGeometry x="500" y="690" width="120" height="60" as="geometry" />
        </mxCell>
        <mxCell id="evp0P0b4LLbFigErLQdF-43" value="dodge roll after player" style="rounded=0;whiteSpace=wrap;html=1;" vertex="1" parent="WIyWlLk6GJQsqaUBKTNV-1">
          <mxGeometry x="700" y="820" width="120" height="60" as="geometry" />
        </mxCell>
        <mxCell id="evp0P0b4LLbFigErLQdF-45" value="chase the player" style="rounded=0;whiteSpace=wrap;html=1;" vertex="1" parent="WIyWlLk6GJQsqaUBKTNV-1">
          <mxGeometry x="560" y="850" width="120" height="60" as="geometry" />
        </mxCell>
        <mxCell id="evp0P0b4LLbFigErLQdF-47" style="edgeStyle=orthogonalEdgeStyle;rounded=0;orthogonalLoop=1;jettySize=auto;html=1;fillColor=#f8cecc;strokeColor=#b85450;entryX=0.5;entryY=1;entryDx=0;entryDy=0;" edge="1" parent="WIyWlLk6GJQsqaUBKTNV-1">
          <mxGeometry relative="1" as="geometry">
            <mxPoint x="401" y="450" as="targetPoint" />
            <mxPoint x="387" y="580" as="sourcePoint" />
          </mxGeometry>
        </mxCell>
        <mxCell id="evp0P0b4LLbFigErLQdF-48" value="Player detected in detection range/ vision area" style="edgeLabel;html=1;align=center;verticalAlign=middle;resizable=0;points=[];" vertex="1" connectable="0" parent="evp0P0b4LLbFigErLQdF-47">
          <mxGeometry x="-0.4308" y="-2" relative="1" as="geometry">
            <mxPoint as="offset" />
          </mxGeometry>
        </mxCell>
        <mxCell id="evp0P0b4LLbFigErLQdF-49" value="IDLE WAIT / PATROL" style="shape=process;whiteSpace=wrap;html=1;backgroundOutline=1;fillColor=#e1d5e7;strokeColor=#9673a6;" vertex="1" parent="WIyWlLk6GJQsqaUBKTNV-1">
          <mxGeometry x="347" y="580" width="120" height="60" as="geometry" />
        </mxCell>
        <mxCell id="evp0P0b4LLbFigErLQdF-50" style="edgeStyle=orthogonalEdgeStyle;rounded=0;orthogonalLoop=1;jettySize=auto;html=1;exitX=0.75;exitY=1;exitDx=0;exitDy=0;entryX=0.75;entryY=0;entryDx=0;entryDy=0;fillColor=#e1d5e7;strokeColor=#9673a6;" edge="1" parent="WIyWlLk6GJQsqaUBKTNV-1">
          <mxGeometry relative="1" as="geometry">
            <mxPoint x="461" y="450" as="sourcePoint" />
            <mxPoint x="447" y="580" as="targetPoint" />
          </mxGeometry>
        </mxCell>
        <mxCell id="evp0P0b4LLbFigErLQdF-51" value="lost the player" style="edgeLabel;html=1;align=center;verticalAlign=middle;resizable=0;points=[];" vertex="1" connectable="0" parent="evp0P0b4LLbFigErLQdF-50">
          <mxGeometry x="-0.3889" y="2" relative="1" as="geometry">
            <mxPoint as="offset" />
          </mxGeometry>
        </mxCell>
        <mxCell id="evp0P0b4LLbFigErLQdF-52" style="edgeStyle=orthogonalEdgeStyle;rounded=0;orthogonalLoop=1;jettySize=auto;html=1;exitX=0;exitY=0.5;exitDx=0;exitDy=0;entryX=0.5;entryY=1;entryDx=0;entryDy=0;" edge="1" parent="WIyWlLk6GJQsqaUBKTNV-1" source="evp0P0b4LLbFigErLQdF-56" target="evp0P0b4LLbFigErLQdF-59">
          <mxGeometry relative="1" as="geometry">
            <mxPoint x="170" y="300" as="targetPoint" />
            <Array as="points">
              <mxPoint x="250" y="420" />
              <mxPoint x="250" y="300" />
            </Array>
          </mxGeometry>
        </mxCell>
        <mxCell id="evp0P0b4LLbFigErLQdF-53" value="Player attacks" style="edgeLabel;html=1;align=center;verticalAlign=middle;resizable=0;points=[];" vertex="1" connectable="0" parent="evp0P0b4LLbFigErLQdF-52">
          <mxGeometry x="-0.5105" y="3" relative="1" as="geometry">
            <mxPoint as="offset" />
          </mxGeometry>
        </mxCell>
        <mxCell id="evp0P0b4LLbFigErLQdF-54" style="edgeStyle=orthogonalEdgeStyle;rounded=0;orthogonalLoop=1;jettySize=auto;html=1;exitX=1;exitY=0.5;exitDx=0;exitDy=0;entryX=0;entryY=0.5;entryDx=0;entryDy=0;entryPerimeter=0;" edge="1" parent="WIyWlLk6GJQsqaUBKTNV-1" source="evp0P0b4LLbFigErLQdF-56" target="evp0P0b4LLbFigErLQdF-69">
          <mxGeometry relative="1" as="geometry">
            <mxPoint x="640" y="420" as="targetPoint" />
          </mxGeometry>
        </mxCell>
        <mxCell id="evp0P0b4LLbFigErLQdF-55" value="Try to attack player" style="edgeLabel;html=1;align=center;verticalAlign=middle;resizable=0;points=[];" vertex="1" connectable="0" parent="evp0P0b4LLbFigErLQdF-54">
          <mxGeometry x="-0.1724" y="-4" relative="1" as="geometry">
            <mxPoint as="offset" />
          </mxGeometry>
        </mxCell>
        <mxCell id="evp0P0b4LLbFigErLQdF-100" style="edgeStyle=orthogonalEdgeStyle;rounded=0;orthogonalLoop=1;jettySize=auto;html=1;exitX=0;exitY=1;exitDx=0;exitDy=0;" edge="1" parent="WIyWlLk6GJQsqaUBKTNV-1" source="evp0P0b4LLbFigErLQdF-56" target="evp0P0b4LLbFigErLQdF-101">
          <mxGeometry relative="1" as="geometry">
            <mxPoint x="170" y="490" as="targetPoint" />
          </mxGeometry>
        </mxCell>
        <mxCell id="evp0P0b4LLbFigErLQdF-102" value="Player blocks" style="edgeLabel;html=1;align=center;verticalAlign=middle;resizable=0;points=[];" vertex="1" connectable="0" parent="evp0P0b4LLbFigErLQdF-100">
          <mxGeometry x="0.1111" y="2" relative="1" as="geometry">
            <mxPoint as="offset" />
          </mxGeometry>
        </mxCell>
        <mxCell id="evp0P0b4LLbFigErLQdF-56" value="COMBAT" style="shape=process;whiteSpace=wrap;html=1;backgroundOutline=1;fillColor=#f8cecc;strokeColor=#b85450;" vertex="1" parent="WIyWlLk6GJQsqaUBKTNV-1">
          <mxGeometry x="361" y="390" width="120" height="60" as="geometry" />
        </mxCell>
        <mxCell id="evp0P0b4LLbFigErLQdF-57" style="edgeStyle=orthogonalEdgeStyle;rounded=0;orthogonalLoop=1;jettySize=auto;html=1;exitX=0;exitY=0;exitDx=0;exitDy=0;entryX=0.5;entryY=1;entryDx=0;entryDy=0;" edge="1" parent="WIyWlLk6GJQsqaUBKTNV-1" source="evp0P0b4LLbFigErLQdF-59" target="evp0P0b4LLbFigErLQdF-60">
          <mxGeometry relative="1" as="geometry" />
        </mxCell>
        <mxCell id="evp0P0b4LLbFigErLQdF-58" style="edgeStyle=orthogonalEdgeStyle;rounded=0;orthogonalLoop=1;jettySize=auto;html=1;exitX=1;exitY=0;exitDx=0;exitDy=0;entryX=0.5;entryY=1;entryDx=0;entryDy=0;" edge="1" parent="WIyWlLk6GJQsqaUBKTNV-1" source="evp0P0b4LLbFigErLQdF-59" target="evp0P0b4LLbFigErLQdF-64">
          <mxGeometry relative="1" as="geometry">
            <mxPoint x="380" y="130" as="targetPoint" />
          </mxGeometry>
        </mxCell>
        <mxCell id="evp0P0b4LLbFigErLQdF-59" value="try to avoid taking damage" style="rhombus;whiteSpace=wrap;html=1;" vertex="1" parent="WIyWlLk6GJQsqaUBKTNV-1">
          <mxGeometry x="190" y="180" width="130" height="120" as="geometry" />
        </mxCell>
        <mxCell id="evp0P0b4LLbFigErLQdF-60" value="dodge roll" style="rounded=0;whiteSpace=wrap;html=1;" vertex="1" parent="WIyWlLk6GJQsqaUBKTNV-1">
          <mxGeometry x="60" y="60" width="120" height="60" as="geometry" />
        </mxCell>
        <mxCell id="evp0P0b4LLbFigErLQdF-61" style="edgeStyle=orthogonalEdgeStyle;rounded=0;orthogonalLoop=1;jettySize=auto;html=1;exitX=1;exitY=0;exitDx=0;exitDy=0;" edge="1" parent="WIyWlLk6GJQsqaUBKTNV-1" source="evp0P0b4LLbFigErLQdF-64" target="evp0P0b4LLbFigErLQdF-78">
          <mxGeometry relative="1" as="geometry">
            <mxPoint x="640" y="30" as="targetPoint" />
          </mxGeometry>
        </mxCell>
        <mxCell id="evp0P0b4LLbFigErLQdF-62" style="edgeStyle=orthogonalEdgeStyle;rounded=0;orthogonalLoop=1;jettySize=auto;html=1;exitX=1;exitY=0.5;exitDx=0;exitDy=0;entryX=0;entryY=0.5;entryDx=0;entryDy=0;entryPerimeter=0;" edge="1" parent="WIyWlLk6GJQsqaUBKTNV-1" source="evp0P0b4LLbFigErLQdF-64" target="evp0P0b4LLbFigErLQdF-76">
          <mxGeometry relative="1" as="geometry">
            <mxPoint x="640" y="120" as="targetPoint" />
          </mxGeometry>
        </mxCell>
        <mxCell id="evp0P0b4LLbFigErLQdF-63" style="edgeStyle=orthogonalEdgeStyle;rounded=0;orthogonalLoop=1;jettySize=auto;html=1;exitX=1;exitY=1;exitDx=0;exitDy=0;" edge="1" parent="WIyWlLk6GJQsqaUBKTNV-1" source="evp0P0b4LLbFigErLQdF-64" target="evp0P0b4LLbFigErLQdF-65">
          <mxGeometry relative="1" as="geometry">
            <mxPoint x="500" y="200" as="targetPoint" />
          </mxGeometry>
        </mxCell>
        <mxCell id="evp0P0b4LLbFigErLQdF-64" value="block / parry" style="rounded=0;whiteSpace=wrap;html=1;" vertex="1" parent="WIyWlLk6GJQsqaUBKTNV-1">
          <mxGeometry x="330" y="60" width="120" height="60" as="geometry" />
        </mxCell>
        <mxCell id="evp0P0b4LLbFigErLQdF-65" value="block with a sword" style="rounded=0;whiteSpace=wrap;html=1;" vertex="1" parent="WIyWlLk6GJQsqaUBKTNV-1">
          <mxGeometry x="450" y="200" width="120" height="60" as="geometry" />
        </mxCell>
        <mxCell id="evp0P0b4LLbFigErLQdF-66" style="edgeStyle=orthogonalEdgeStyle;rounded=0;orthogonalLoop=1;jettySize=auto;html=1;exitX=0.5;exitY=0;exitDx=0;exitDy=0;entryX=0.5;entryY=1;entryDx=0;entryDy=0;" edge="1" parent="WIyWlLk6GJQsqaUBKTNV-1" source="evp0P0b4LLbFigErLQdF-69" target="evp0P0b4LLbFigErLQdF-65">
          <mxGeometry relative="1" as="geometry" />
        </mxCell>
        <mxCell id="evp0P0b4LLbFigErLQdF-67" style="edgeStyle=orthogonalEdgeStyle;rounded=0;orthogonalLoop=1;jettySize=auto;html=1;exitX=0.5;exitY=1;exitDx=0;exitDy=0;" edge="1" parent="WIyWlLk6GJQsqaUBKTNV-1" source="evp0P0b4LLbFigErLQdF-69" target="evp0P0b4LLbFigErLQdF-71">
          <mxGeometry relative="1" as="geometry">
            <mxPoint x="620" y="560" as="targetPoint" />
          </mxGeometry>
        </mxCell>
        <mxCell id="evp0P0b4LLbFigErLQdF-68" style="edgeStyle=orthogonalEdgeStyle;rounded=0;orthogonalLoop=1;jettySize=auto;html=1;exitX=0.75;exitY=1;exitDx=0;exitDy=0;" edge="1" parent="WIyWlLk6GJQsqaUBKTNV-1" source="evp0P0b4LLbFigErLQdF-69" target="evp0P0b4LLbFigErLQdF-74">
          <mxGeometry relative="1" as="geometry">
            <mxPoint x="760" y="670" as="targetPoint" />
          </mxGeometry>
        </mxCell>
        <mxCell id="evp0P0b4LLbFigErLQdF-69" value="use weapon" style="rounded=0;whiteSpace=wrap;html=1;" vertex="1" parent="WIyWlLk6GJQsqaUBKTNV-1">
          <mxGeometry x="640" y="390" width="120" height="60" as="geometry" />
        </mxCell>
        <mxCell id="evp0P0b4LLbFigErLQdF-70" style="edgeStyle=orthogonalEdgeStyle;rounded=0;orthogonalLoop=1;jettySize=auto;html=1;exitX=0.5;exitY=1;exitDx=0;exitDy=0;" edge="1" parent="WIyWlLk6GJQsqaUBKTNV-1" source="evp0P0b4LLbFigErLQdF-71" target="evp0P0b4LLbFigErLQdF-95">
          <mxGeometry relative="1" as="geometry">
            <mxPoint x="560" y="720" as="targetPoint" />
          </mxGeometry>
        </mxCell>
        <mxCell id="evp0P0b4LLbFigErLQdF-71" value="player blocks" style="rounded=0;whiteSpace=wrap;html=1;" vertex="1" parent="WIyWlLk6GJQsqaUBKTNV-1">
          <mxGeometry x="580" y="530" width="120" height="60" as="geometry" />
        </mxCell>
        <mxCell id="evp0P0b4LLbFigErLQdF-72" style="edgeStyle=orthogonalEdgeStyle;rounded=0;orthogonalLoop=1;jettySize=auto;html=1;exitX=0.5;exitY=1;exitDx=0;exitDy=0;" edge="1" parent="WIyWlLk6GJQsqaUBKTNV-1" source="evp0P0b4LLbFigErLQdF-74" target="evp0P0b4LLbFigErLQdF-96">
          <mxGeometry relative="1" as="geometry">
            <mxPoint x="720" y="830" as="targetPoint" />
          </mxGeometry>
        </mxCell>
        <mxCell id="evp0P0b4LLbFigErLQdF-73" style="edgeStyle=orthogonalEdgeStyle;rounded=0;orthogonalLoop=1;jettySize=auto;html=1;exitX=0.25;exitY=1;exitDx=0;exitDy=0;" edge="1" parent="WIyWlLk6GJQsqaUBKTNV-1" source="evp0P0b4LLbFigErLQdF-74" target="evp0P0b4LLbFigErLQdF-97">
          <mxGeometry relative="1" as="geometry">
            <mxPoint x="620" y="850" as="targetPoint" />
          </mxGeometry>
        </mxCell>
        <mxCell id="evp0P0b4LLbFigErLQdF-103" style="edgeStyle=orthogonalEdgeStyle;rounded=0;orthogonalLoop=1;jettySize=auto;html=1;exitX=0;exitY=1;exitDx=0;exitDy=0;" edge="1" parent="WIyWlLk6GJQsqaUBKTNV-1" source="evp0P0b4LLbFigErLQdF-74" target="evp0P0b4LLbFigErLQdF-104">
          <mxGeometry relative="1" as="geometry">
            <mxPoint x="510" y="920" as="targetPoint" />
          </mxGeometry>
        </mxCell>
        <mxCell id="evp0P0b4LLbFigErLQdF-74" value="player dodge rolls" style="rounded=0;whiteSpace=wrap;html=1;" vertex="1" parent="WIyWlLk6GJQsqaUBKTNV-1">
          <mxGeometry x="700" y="640" width="120" height="60" as="geometry" />
        </mxCell>
        <mxCell id="evp0P0b4LLbFigErLQdF-75" style="edgeStyle=orthogonalEdgeStyle;rounded=0;orthogonalLoop=1;jettySize=auto;html=1;exitX=0.5;exitY=1;exitDx=0;exitDy=0;" edge="1" parent="WIyWlLk6GJQsqaUBKTNV-1" source="evp0P0b4LLbFigErLQdF-76" target="evp0P0b4LLbFigErLQdF-93">
          <mxGeometry relative="1" as="geometry">
            <mxPoint x="720" y="200" as="targetPoint" />
          </mxGeometry>
        </mxCell>
        <mxCell id="evp0P0b4LLbFigErLQdF-76" value="blocked with a shield" style="rounded=0;whiteSpace=wrap;html=1;" vertex="1" parent="WIyWlLk6GJQsqaUBKTNV-1">
          <mxGeometry x="600" y="90" width="120" height="60" as="geometry" />
        </mxCell>
        <mxCell id="evp0P0b4LLbFigErLQdF-77" style="edgeStyle=orthogonalEdgeStyle;rounded=0;orthogonalLoop=1;jettySize=auto;html=1;exitX=1;exitY=0.5;exitDx=0;exitDy=0;" edge="1" parent="WIyWlLk6GJQsqaUBKTNV-1" source="evp0P0b4LLbFigErLQdF-78" target="evp0P0b4LLbFigErLQdF-94">
          <mxGeometry relative="1" as="geometry">
            <mxPoint x="790" y="110" as="targetPoint" />
          </mxGeometry>
        </mxCell>
        <mxCell id="evp0P0b4LLbFigErLQdF-78" value="parried" style="rounded=0;whiteSpace=wrap;html=1;" vertex="1" parent="WIyWlLk6GJQsqaUBKTNV-1">
          <mxGeometry x="640" y="10" width="120" height="60" as="geometry" />
        </mxCell>
        <mxCell id="evp0P0b4LLbFigErLQdF-79" style="edgeStyle=orthogonalEdgeStyle;rounded=0;orthogonalLoop=1;jettySize=auto;html=1;exitX=0.5;exitY=1;exitDx=0;exitDy=0;" edge="1" parent="WIyWlLk6GJQsqaUBKTNV-1" source="evp0P0b4LLbFigErLQdF-80" target="evp0P0b4LLbFigErLQdF-81">
          <mxGeometry relative="1" as="geometry">
            <mxPoint x="110" y="710" as="targetPoint" />
          </mxGeometry>
        </mxCell>
        <mxCell id="evp0P0b4LLbFigErLQdF-80" value="player is staggered" style="rounded=1;whiteSpace=wrap;html=1;" vertex="1" parent="WIyWlLk6GJQsqaUBKTNV-1">
          <mxGeometry x="50" y="560" width="120" height="60" as="geometry" />
        </mxCell>
        <mxCell id="evp0P0b4LLbFigErLQdF-81" value="walk up and critical strike" style="rounded=0;whiteSpace=wrap;html=1;" vertex="1" parent="WIyWlLk6GJQsqaUBKTNV-1">
          <mxGeometry x="50" y="680" width="120" height="60" as="geometry" />
        </mxCell>
        <mxCell id="evp0P0b4LLbFigErLQdF-82" style="edgeStyle=orthogonalEdgeStyle;rounded=0;orthogonalLoop=1;jettySize=auto;html=1;exitX=0.5;exitY=1;exitDx=0;exitDy=0;" edge="1" parent="WIyWlLk6GJQsqaUBKTNV-1" source="evp0P0b4LLbFigErLQdF-84" target="evp0P0b4LLbFigErLQdF-85">
          <mxGeometry relative="1" as="geometry">
            <mxPoint x="120" y="940" as="targetPoint" />
          </mxGeometry>
        </mxCell>
        <mxCell id="evp0P0b4LLbFigErLQdF-83" style="edgeStyle=orthogonalEdgeStyle;rounded=0;orthogonalLoop=1;jettySize=auto;html=1;exitX=1;exitY=0.5;exitDx=0;exitDy=0;" edge="1" parent="WIyWlLk6GJQsqaUBKTNV-1" source="evp0P0b4LLbFigErLQdF-84" target="evp0P0b4LLbFigErLQdF-86">
          <mxGeometry relative="1" as="geometry">
            <mxPoint x="240" y="830" as="targetPoint" />
          </mxGeometry>
        </mxCell>
        <mxCell id="evp0P0b4LLbFigErLQdF-84" value="low on hp" style="rounded=1;whiteSpace=wrap;html=1;" vertex="1" parent="WIyWlLk6GJQsqaUBKTNV-1">
          <mxGeometry x="60" y="800" width="120" height="60" as="geometry" />
        </mxCell>
        <mxCell id="evp0P0b4LLbFigErLQdF-85" value="be more defensive" style="rounded=0;whiteSpace=wrap;html=1;" vertex="1" parent="WIyWlLk6GJQsqaUBKTNV-1">
          <mxGeometry x="60" y="910" width="120" height="60" as="geometry" />
        </mxCell>
        <mxCell id="evp0P0b4LLbFigErLQdF-86" value="try to heal up" style="rounded=0;whiteSpace=wrap;html=1;" vertex="1" parent="WIyWlLk6GJQsqaUBKTNV-1">
          <mxGeometry x="227" y="800" width="120" height="60" as="geometry" />
        </mxCell>
        <mxCell id="evp0P0b4LLbFigErLQdF-87" style="edgeStyle=orthogonalEdgeStyle;rounded=0;orthogonalLoop=1;jettySize=auto;html=1;exitX=0.5;exitY=1;exitDx=0;exitDy=0;" edge="1" parent="WIyWlLk6GJQsqaUBKTNV-1" source="evp0P0b4LLbFigErLQdF-89" target="evp0P0b4LLbFigErLQdF-90">
          <mxGeometry relative="1" as="geometry">
            <mxPoint x="120" y="1100" as="targetPoint" />
          </mxGeometry>
        </mxCell>
        <mxCell id="evp0P0b4LLbFigErLQdF-88" style="edgeStyle=orthogonalEdgeStyle;rounded=0;orthogonalLoop=1;jettySize=auto;html=1;exitX=1;exitY=0.5;exitDx=0;exitDy=0;" edge="1" parent="WIyWlLk6GJQsqaUBKTNV-1" source="evp0P0b4LLbFigErLQdF-89" target="evp0P0b4LLbFigErLQdF-91">
          <mxGeometry relative="1" as="geometry">
            <mxPoint x="230" y="1030" as="targetPoint" />
          </mxGeometry>
        </mxCell>
        <mxCell id="evp0P0b4LLbFigErLQdF-89" value="low on stamina" style="rounded=1;whiteSpace=wrap;html=1;" vertex="1" parent="WIyWlLk6GJQsqaUBKTNV-1">
          <mxGeometry x="60" y="1000" width="120" height="60" as="geometry" />
        </mxCell>
        <mxCell id="evp0P0b4LLbFigErLQdF-90" value="be more aggresive" style="rounded=0;whiteSpace=wrap;html=1;" vertex="1" parent="WIyWlLk6GJQsqaUBKTNV-1">
          <mxGeometry x="60" y="1090" width="120" height="60" as="geometry" />
        </mxCell>
        <mxCell id="evp0P0b4LLbFigErLQdF-91" value="try to recover stamina" style="rounded=0;whiteSpace=wrap;html=1;" vertex="1" parent="WIyWlLk6GJQsqaUBKTNV-1">
          <mxGeometry x="227" y="1000" width="120" height="60" as="geometry" />
        </mxCell>
        <mxCell id="evp0P0b4LLbFigErLQdF-92" value="maybe some stats like aggresiveLevel, defensiveLevel, passiveLevel?" style="text;html=1;align=center;verticalAlign=middle;resizable=0;points=[];autosize=1;strokeColor=none;fillColor=none;" vertex="1" parent="WIyWlLk6GJQsqaUBKTNV-1">
          <mxGeometry x="190" y="1100" width="400" height="30" as="geometry" />
        </mxCell>
        <mxCell id="evp0P0b4LLbFigErLQdF-93" value="counter with a weapon instantly" style="rounded=0;whiteSpace=wrap;html=1;" vertex="1" parent="WIyWlLk6GJQsqaUBKTNV-1">
          <mxGeometry x="660" y="200" width="120" height="60" as="geometry" />
        </mxCell>
        <mxCell id="evp0P0b4LLbFigErLQdF-94" value="goto stagger" style="rounded=0;whiteSpace=wrap;html=1;" vertex="1" parent="WIyWlLk6GJQsqaUBKTNV-1">
          <mxGeometry x="760" y="80" width="50" height="60" as="geometry" />
        </mxCell>
        <mxCell id="evp0P0b4LLbFigErLQdF-95" value="dodge roll away form player" style="rounded=0;whiteSpace=wrap;html=1;" vertex="1" parent="WIyWlLk6GJQsqaUBKTNV-1">
          <mxGeometry x="500" y="690" width="120" height="60" as="geometry" />
        </mxCell>
        <mxCell id="evp0P0b4LLbFigErLQdF-96" value="dodge roll after player" style="rounded=0;whiteSpace=wrap;html=1;" vertex="1" parent="WIyWlLk6GJQsqaUBKTNV-1">
          <mxGeometry x="700" y="820" width="120" height="60" as="geometry" />
        </mxCell>
        <mxCell id="evp0P0b4LLbFigErLQdF-97" value="chase the player" style="rounded=0;whiteSpace=wrap;html=1;" vertex="1" parent="WIyWlLk6GJQsqaUBKTNV-1">
          <mxGeometry x="560" y="850" width="120" height="60" as="geometry" />
        </mxCell>
        <mxCell id="evp0P0b4LLbFigErLQdF-98" value="" style="shape=stencil(fZbdcgIhDIWfZm8zQAg/17Z9j85U606tdqz9e/tmZ0c0uJ47xP0I5JwEBl59bp8/1kNwn6fj4W39M76ctgM/DCGM++36OJ50NPDjwKvN4bh+PR6+9i/z74/n6ctp9H74nlb4nbmSKZeJCu5vngmZ6jzzNAO7cX8FVKEsBuBKrgKg9oAE8gkCbLeUhEoEQKSUDZDLeWYRKIl8MEDRmHwfyBrBG6Amyu4+kDxxMoB3jhwgYu7TVAsVkFcWCs4CTBEoF4RctKeOxHIf8IXYpikHikAIf+MNUW94AGSSaoAoFIE3AlOyeWU+p2E5S9yfQZcQILVuQOwZdJNoS9Ls3wA5u2XZTIHECqeJ9kDpSaauRiNVcAY1QhdBzeLBli5WazpkSsBLV25uRaqWRyFawTQzRRIQYirJzq5atkBqLfouwqUxLBepthWb10vrWZY6UOAeyKCCtDV625mm9gmUC4Wc3VLJMMIE1BsA2FW9JraVlQB7n3c9oMKhCLEvIM1zBPZ25/umNQ1tVEC2G+fFCC8g398O2hNQuQlVu752DBfA+q0ptnqO5JFmeuIuo9DY7KjY71UxdJV4EntifPWorW++R/dC4t7V3DlIB5cHx2bc7eb3yvX//QNFp+bHDT/+Aw==);lineShape=1;strokeColor=default;" vertex="1" parent="WIyWlLk6GJQsqaUBKTNV-1">
          <mxGeometry x="398.8679608424759" y="674.8753124585194" width="4.672539772115215" height="4.665236216357243" as="geometry" />
        </mxCell>
        <mxCell id="evp0P0b4LLbFigErLQdF-101" value="try to move around and get at the back of the player" style="rounded=0;whiteSpace=wrap;html=1;" vertex="1" parent="WIyWlLk6GJQsqaUBKTNV-1">
          <mxGeometry x="110" y="460" width="120" height="60" as="geometry" />
        </mxCell>
        <mxCell id="evp0P0b4LLbFigErLQdF-104" value="maybe try a ranged attack" style="rounded=0;whiteSpace=wrap;html=1;" vertex="1" parent="WIyWlLk6GJQsqaUBKTNV-1">
          <mxGeometry x="430" y="930" width="120" height="60" as="geometry" />
        </mxCell>
      </root>
    </mxGraphModel>
  </diagram>
</mxfile>
